<svg width="80" height="80" viewBox="0 0 80 80" fill="none" xmlns="http://www.w3.org/2000/svg">
<path d="M39.9961 60.0117C28.9609 60.0117 19.9844 51.0352 19.9844 40C19.9844 28.9648 28.9609 19.9883 39.9961 19.9883C51.0312 19.9883 60.0078 28.9648 60.0078 40C60.0078 51.0352 51.0312 60.0117 39.9961 60.0117ZM39.9961 23.9883C31.168 23.9883 23.9844 31.1719 23.9844 40C23.9844 48.8281 31.168 56.0117 39.9961 56.0117C48.8242 56.0117 56.0078 48.8281 56.0078 40C56.0078 31.1719 48.8242 23.9883 39.9961 23.9883Z" fill="#63A132"/>
<path d="M40.002 60.0117C33.959 60.0117 30.7969 49.9453 30.7969 40C30.7969 30.0547 33.959 19.9883 40.002 19.9883C46.0449 19.9883 49.2051 30.0547 49.2051 40C49.2051 49.9453 46.0449 60.0117 40.002 60.0117ZM40.002 23.9883C37.9297 23.9883 34.7969 30.375 34.7969 40C34.7969 49.625 37.9297 56.0117 40.002 56.0117C42.0742 56.0117 45.2051 49.625 45.2051 40C45.2051 30.375 42.0742 23.9883 40.002 23.9883Z" fill="#63A132"/>
<path d="M58.0078 42H21.9844C20.8789 42 19.9844 41.1055 19.9844 40C19.9844 38.8945 20.8789 38 21.9844 38H58.0078C59.1133 38 60.0078 38.8945 60.0078 40C60.0078 41.1055 59.1133 42 58.0078 42Z" fill="#63A132"/>
<path d="M65.3624 15.414C65.0006 15.7758 64.5006 15.9996 63.9482 15.9996L58.0635 16.001L58.0621 21.8857C58.0621 22.9905 57.1671 23.8855 56.0623 23.8855C54.9574 23.8855 54.0625 22.9905 54.0625 21.8857L54.0639 14.0012C54.0639 12.8963 54.9588 12.0014 56.0637 12.0014L63.9482 12C65.053 12 65.948 12.8949 65.948 13.9998C65.948 14.5522 65.7242 15.0522 65.3624 15.414Z" fill="#333333"/>
<path d="M40.0078 72.0078C22.3594 72.0078 8 57.6484 8 40C8 22.3516 22.3594 7.99219 40.0078 7.99219C41.4395 7.99219 42.873 8.08594 44.2734 8.27734C45.3672 8.42187 46.1367 9.42969 45.9883 10.5234C45.8438 11.6172 44.8203 12.4102 43.7422 12.2383C42.5176 12.0742 41.2617 11.9922 40.0078 11.9922C24.5645 11.9922 12 24.5547 12 40C12 55.4453 24.5645 68.0078 40.0078 68.0078C55.4531 68.0078 68.0156 55.4453 68.0156 40C68.0156 30.6758 63.3945 21.9883 55.6523 16.7656C54.7344 16.1484 54.4922 14.9062 55.1133 13.9922C55.7266 13.0703 56.9883 12.832 57.8867 13.4531C66.7344 19.418 72.0156 29.3438 72.0156 40C72.0156 57.6484 57.6562 72.0078 40.0078 72.0078Z" fill="#333333"/>
</svg>
