<svg width="80" height="80" viewBox="0 0 80 80" fill="none" xmlns="http://www.w3.org/2000/svg">
<path d="M39.0781 68.1631C23.5703 68.1631 10.9531 55.5498 10.9531 40.042C10.9531 24.5342 23.5703 11.917 39.0781 11.917C40.1836 11.917 41.0781 12.8115 41.0781 13.917C41.0781 15.0225 40.1836 15.917 39.0781 15.917C25.7754 15.917 14.9531 26.7412 14.9531 40.042C14.9531 53.3428 25.7754 64.1631 39.0781 64.1631C52.3789 64.1631 63.2012 53.3428 63.2012 40.042C63.2012 34.4873 61.2695 29.0654 57.7598 24.7764C57.0605 23.9209 57.1875 22.6631 58.043 21.9639C58.8945 21.2568 60.1543 21.3857 60.8574 22.2451C64.9473 27.2451 67.2012 33.5693 67.2012 40.042C67.2012 55.5498 54.5859 68.1631 39.0781 68.1631Z" fill="#333333"/>
<path d="M67.0508 70.0186C66.5391 70.0186 66.0273 69.8232 65.6367 69.4326L56.0703 59.8662C55.2891 59.085 55.2891 57.8193 56.0703 57.0381C56.8516 56.2568 58.1172 56.2568 58.8984 57.0381L68.4648 66.6045C69.2461 67.3857 69.2461 68.6514 68.4648 69.4326C68.0742 69.8232 67.5625 70.0186 67.0508 70.0186Z" fill="#333333"/>
<path d="M48.9688 52.0381C47.8633 52.0381 46.9688 51.1436 46.9688 50.0381V11.9834C46.9688 10.8779 47.8633 9.9834 48.9688 9.9834C50.0742 9.9834 50.9688 10.8779 50.9688 11.9834V50.0381C50.9688 51.1436 50.0742 52.0381 48.9688 52.0381Z" fill="#63A132"/>
<path d="M41.0938 52.0381C39.9883 52.0381 39.0938 51.1436 39.0938 50.0381V27.9834C39.0938 26.8779 39.9883 25.9834 41.0938 25.9834C42.1992 25.9834 43.0938 26.8779 43.0938 27.9834V50.0381C43.0938 51.1436 42.1992 52.0381 41.0938 52.0381Z" fill="#63A132"/>
<path d="M32.9844 52.0381C31.8789 52.0381 30.9844 51.1436 30.9844 50.0381V41.9287C30.9844 40.8232 31.8789 39.9287 32.9844 39.9287C34.0898 39.9287 34.9844 40.8232 34.9844 41.9287V50.0381C34.9844 51.1436 34.0898 52.0381 32.9844 52.0381Z" fill="#63A132"/>
</svg>
