<svg width="80" height="80" viewBox="0 0 80 80" fill="none" xmlns="http://www.w3.org/2000/svg">
<path d="M62 32C61.4883 32 60.9766 31.8047 60.5859 31.4141L40.5859 11.4141C39.8047 10.6328 39.8047 9.36719 40.5859 8.58594C41.3672 7.80469 42.6328 7.80469 43.4141 8.58594L63.4141 28.5859C64.1953 29.3672 64.1953 30.6328 63.4141 31.4141C63.0234 31.8047 62.5117 32 62 32Z" fill="#333333"/>
<path d="M62 72H18C16.8945 72 16 71.1055 16 70V10C16 8.89453 16.8945 8 18 8H42C43.1055 8 44 8.89453 44 10V28H62C63.1055 28 64 28.8945 64 30V70C64 71.1055 63.1055 72 62 72ZM20 68H60V32H42C40.8945 32 40 31.1055 40 30V12H20V68Z" fill="#333333"/>
<path d="M37.3047 59.0156C36.793 59.0156 36.2812 58.8203 35.8906 58.4297L28.5547 51.0938C27.7734 50.3125 27.7734 49.0469 28.5547 48.2656C29.3359 47.4844 30.6016 47.4844 31.3828 48.2656L37.3047 54.1875L48.6016 42.8906C49.3828 42.1094 50.6484 42.1094 51.4297 42.8906C52.2109 43.6719 52.2109 44.9375 51.4297 45.7188L38.7188 58.4297C38.3281 58.8203 37.8164 59.0156 37.3047 59.0156Z" fill="#63A132"/>
</svg>
