<svg width="80" height="80" viewBox="0 0 80 80" fill="none" xmlns="http://www.w3.org/2000/svg">
<path d="M62 72H18C14.6914 72 12 69.3086 12 66V24C12 20.6914 14.6914 18 18 18H36C37.1055 18 38 18.8945 38 20C38 21.1055 37.1055 22 36 22H18C16.8965 22 16 22.8984 16 24V66C16 67.1016 16.8965 68 18 68H62C63.1035 68 64 67.1016 64 66V40C64 38.8945 64.8945 38 66 38C67.1055 38 68 38.8945 68 40V66C68 69.3086 65.3086 72 62 72Z" fill="#333333"/>
<path d="M50 62.0117C48.8945 62.0117 48 61.1172 48 60.0117V43.9023C48 42.7969 48.8945 41.9023 50 41.9023C51.1055 41.9023 52 42.7969 52 43.9023V60.0117C52 61.1172 51.1055 62.0117 50 62.0117Z" fill="#63A132"/>
<path d="M38 62.0117C36.8945 62.0117 36 61.1172 36 60.0117V31.9023C36 30.7969 36.8945 29.9023 38 29.9023C39.1055 29.9023 40 30.7969 40 31.9023V60.0117C40 61.1172 39.1055 62.0117 38 62.0117Z" fill="#63A132"/>
<path d="M26 62.0117C24.8945 62.0117 24 61.1172 24 60.0117V51.9023C24 50.7969 24.8945 49.9023 26 49.9023C27.1055 49.9023 28 50.7969 28 51.9023V60.0117C28 61.1172 27.1055 62.0117 26 62.0117Z" fill="#63A132"/>
<path d="M58 6C50.2681 6 44 12.2678 44 20C44 27.7319 50.2681 34 58 34C65.7319 34 72 27.7319 72 20C72 12.2678 65.7319 6 58 6ZM60 19.9995C60 20.7183 59.6152 21.3784 58.9922 21.7378L53.7676 24.7222C53.4551 24.8979 53.1133 24.9839 52.7773 24.9839C52.082 24.9839 51.4082 24.6206 51.0391 23.9761C50.4902 23.0151 50.8242 21.7964 51.7832 21.2456L56 18.8394V12.644C56 11.5386 56.8945 10.644 58 10.644C59.1055 10.644 60 11.5386 60 12.644V19.9995Z" fill="#63A132"/>
</svg>
