<svg width="80" height="80" viewBox="0 0 80 80" fill="none" xmlns="http://www.w3.org/2000/svg">
<path d="M40 61.0889C38.8945 61.0889 38 60.1943 38 59.0889V20.9131C38 19.8076 38.8945 18.9131 40 18.9131C41.1055 18.9131 42 19.8076 42 20.9131V59.0889C42 60.1943 41.1055 61.0889 40 61.0889Z" fill="#63A132"/>
<path d="M39.9961 57.999C33.4414 57.999 28.1094 53.5146 28.1094 47.999C28.1094 46.8936 29.0039 45.999 30.1094 45.999C31.2148 45.999 32.1094 46.8936 32.1094 47.999C32.1094 51.3076 35.6465 53.999 39.9961 53.999C44.3457 53.999 47.8828 51.3076 47.8828 47.999C47.8828 44.6904 44.3457 41.999 39.9961 41.999C33.4414 41.999 28.1094 37.5146 28.1094 31.999C28.1094 26.4834 33.4414 21.999 39.9961 21.999C46.5508 21.999 51.8828 26.4834 51.8828 31.999C51.8828 33.1045 50.9883 33.999 49.8828 33.999C48.7773 33.999 47.8828 33.1045 47.8828 31.999C47.8828 28.6904 44.3457 25.999 39.9961 25.999C35.6465 25.999 32.1094 28.6904 32.1094 31.999C32.1094 35.3076 35.6465 37.999 39.9961 37.999C46.5508 37.999 51.8828 42.4834 51.8828 47.999C51.8828 53.5146 46.5508 57.999 39.9961 57.999Z" fill="#63A132"/>
<path d="M65.3624 15.414C65.0006 15.7758 64.5006 15.9996 63.9482 15.9996L58.0635 16.001L58.0621 21.8857C58.0621 22.9905 57.1671 23.8855 56.0623 23.8855C54.9574 23.8855 54.0625 22.9905 54.0625 21.8857L54.0639 14.0012C54.0639 12.8963 54.9588 12.0014 56.0637 12.0014L63.9482 12C65.053 12 65.948 12.8949 65.948 13.9998C65.948 14.5522 65.7242 15.0522 65.3624 15.414Z" fill="#333333"/>
<path d="M40.0078 72.0068C22.3594 72.0068 8 57.6475 8 39.999C8 22.3506 22.3594 7.99121 40.0078 7.99121C41.4395 7.99121 42.873 8.08496 44.2734 8.27637C45.3691 8.4209 46.1367 9.42871 45.9902 10.5225C45.8418 11.6162 44.8301 12.4326 43.7422 12.2373C42.5176 12.0732 41.2617 11.9912 40.0078 11.9912C24.5645 11.9912 12 24.5537 12 39.999C12 55.4443 24.5645 68.0068 40.0078 68.0068C55.4512 68.0068 68.0156 55.4443 68.0156 39.999C68.0156 30.6748 63.3945 21.9873 55.6523 16.7646C54.7363 16.1475 54.4961 14.9053 55.1133 13.9912C55.7324 13.0732 56.9727 12.8232 57.8906 13.4521C66.7344 19.417 72.0156 29.3428 72.0156 39.999C72.0156 57.6475 57.6562 72.0068 40.0078 72.0068Z" fill="#333333"/>
</svg>
