<svg width="80" height="80" viewBox="0 0 80 80" fill="none" xmlns="http://www.w3.org/2000/svg">
<path d="M31.3866 55.2568C30.9726 55.2568 30.5585 55.1279 30.2109 54.874C29.5956 54.4287 29.287 53.6709 29.4159 52.917L30.8827 44.3623L24.6659 38.3037C24.121 37.7725 23.9257 36.9756 24.1601 36.2529C24.3964 35.5264 25.0214 34.999 25.7753 34.8896L34.3651 33.6436L38.2089 25.8545C38.8808 24.4951 41.123 24.4951 41.7948 25.8545L45.6386 33.6436L54.2323 34.8896C54.9823 34.999 55.6112 35.5264 55.8456 36.2529C56.08 36.9756 55.8847 37.7725 55.3378 38.3037L49.1191 44.3623L50.5917 52.917C50.7206 53.667 50.412 54.4287 49.7948 54.874C49.1855 55.3232 48.3651 55.3896 47.6894 55.0264L40.0019 50.9873L32.3163 55.0264C32.0253 55.1826 31.705 55.2568 31.3866 55.2568ZM30.3612 38.2686L34.4276 42.2295C34.8984 42.6904 35.1132 43.3506 35.0019 44.0029L34.0429 49.6006L39.0722 46.96C39.6542 46.6553 40.3495 46.6553 40.9316 46.96L45.9628 49.6006L44.998 44.0029C44.8886 43.3545 45.1034 42.6904 45.5761 42.2295L49.6425 38.2686L44.0214 37.4521C43.371 37.3545 42.8085 36.9482 42.5175 36.3584L40.0019 31.2607L37.4862 36.3584C37.1952 36.9482 36.6327 37.3545 35.9804 37.4521L30.3612 38.2686Z" fill="#63A132"/>
<path d="M40.0039 72.0811C22.3145 72.0811 7.92188 57.6904 7.92188 39.999C7.92188 22.3076 22.3145 7.91699 40.0039 7.91699C57.6953 7.91699 72.0859 22.3076 72.0859 39.999C72.0859 57.6904 57.6953 72.0811 40.0039 72.0811ZM40.0039 11.917C24.5195 11.917 11.9219 24.5146 11.9219 39.999C11.9219 55.4834 24.5195 68.0811 40.0039 68.0811C55.4883 68.0811 68.0859 55.4834 68.0859 39.999C68.0859 24.5146 55.4883 11.917 40.0039 11.917Z" fill="#333333"/>
</svg>
