<?xml version="1.0" encoding="UTF-8"?>
<svg id="Layer_1" data-name="Layer 1" xmlns="http://www.w3.org/2000/svg" viewBox="0 0 267.6446932387 71.2083799708">
  <defs>
    <style>
      .cls-1 {
        fill: #fff;
      }

      .cls-1, .cls-2, .cls-3, .cls-4 {
        fill-rule: evenodd;
      }

      .cls-5 {
        fill: #555;
      }

      .cls-2, .cls-6 {
        fill: #6db24f;
      }

      .cls-3 {
        fill: #85c968;
      }

      .cls-4 {
        fill: #aae093;
      }
    </style>
  </defs>
  <path class="cls-2" d="M0,40.0799989875C.1294999967,17.9225995472,18.129099542,0,40.3169989815,0v40.0799989875H0Z"/>
  <path class="cls-3" d="M40.3169989815,40.0799989875l15.3565996121,27.0339993171c-14.7589996272,8.4602997863-33.5912991514,3.3913999143-42.1037989364-11.3519997132-8.5283997846-14.7716996268-3.4671999124-33.6600991497,11.3043997144-42.1885989342,14.5538996323-8.4026997877,33.1037991637-3.6130999087,41.8045989439,10.6580997308l-26.361799334,15.8484995996Z"/>
  <path class="cls-4" d="M40.3169989815,18.7010995276c11.9397996984,0,21.6188994539,9.6790997555,21.6188994539,21.6188994539s-9.6790997555,21.6188994539-21.6188994539,21.6188994539-21.6188994539-9.6790997555-21.6188994539-21.6188994539,9.6790997555-21.6188994539,21.6188994539-21.6188994539Z"/>
  <path class="cls-1" d="M40.3169989815,27.9662992935c6.8226998276,0,12.3536996879,5.5309998603,12.3536996879,12.3536996879s-5.5309998603,12.3536996879-12.3536996879,12.3536996879-12.3536996879-5.5309998603-12.3536996879-12.3536996879,5.5309998603-12.3536996879,12.3536996879-12.3536996879Z"/>
  <path class="cls-6" d="M115.58749708,56.9350985617v-31.5839992021c0-.4154999895-.0719999982-.6877999826-.2159999945-.8159999794-.1439999964-.1274999968-.4559999885-.1919999951-.9359999764-.1919999951h-5.0399998727c-.4162999895,0-.7042999822.0719999982-.8639999782.2159999945-.1604999959.1439999964-.2399999939.4079999897-.2399999939.79199998v11.9519996981h-13.0079996714v-11.9519996981c0-.4154999895-.0719999982-.6877999826-.2159999945-.8159999794-.1439999964-.1274999968-.4559999885-.1919999951-.9359999764-.1919999951h-5.0879998715c-.3839999903,0-.6644999832.0719999982-.8399999788.2159999945-.1762999955.1439999964-.2639999933.4079999897-.2639999933.79199998v31.5839992021c0,.3839999903.0876999978.6479999836.2639999933.79199998.1754999956.1439999964.4559999885.2159999945.8399999788.2159999945h5.0879998715c.4799999879,0,.79199998-.0637999984.9359999764-.1919999951.1439999964-.1274999968.2159999945-.3997999899.2159999945-.8159999794v-13.4399996605h13.0079996714v13.4399996605c0,.3839999903.079499998.6479999836.2399999939.79199998.159699996.1439999964.4476999887.2159999945.8639999782.2159999945h5.0399998727c.4799999879,0,.79199998-.0637999984.9359999764-.1919999951.1439999964-.1274999968.2159999945-.3997999899.2159999945-.8159999794h0Z"/>
  <path class="cls-6" d="M131.1007966881,52.3750986769c-.7079999821-.2557999935-1.2554999683-.6479999836-1.6409999585-1.1759999703-.3861999902-.5279999867-.6434999837-1.1834999701-.7724999805-1.9679999503-.1289999967-.7837999802-.1926999951-1.703999957-.1926999951-2.7599999303v-12.864099675c0-.6073999847-.3337999916-.911899977-1.0012999747-.911899977h-4.9574998748c-.4454999887,0-.7236999817.0644999984-.8346999789.1919999951-.1109999972.1281999968-.1664999958.3681999907-.1664999958.7198999818v12.4320996859c0,2.2724999426.2234999944,4.1999998939.671999983,5.7839998539.4476999887,1.58399996,1.1759999703,2.8724999274,2.1839999448,3.8639999024,1.0079999745.9921999749,2.3196999414,1.7121999567,3.9359999006,2.1599999454,1.6154999592.4476999887,3.5759999097.671999983,5.8799998515.671999983.4799999879,0,1.0394999737-.0082999998,1.6799999576-.0239999994.6396999838-.0164999996,1.2876999675-.0479999988,1.9439999509-.0959999976.6554999834-.0479999988,1.2719999679-.1042999974,1.8479999533-.1679999958.5759999854-.0644999984,1.0559999733-.1282999968,1.4399999636-.1919999951,1.1196999717-.2557999935,1.8959999521-.7034999822,2.3279999412-1.343999966.4319999891-.6397999838.6479999836-1.503799962.6479999836-2.5919999345v-20.4960994822c0-.6073999847-.3359999915-.911899977-1.0079999745-.911899977h-4.9439998751c-.4484999887,0-.7282999816.0644999984-.8399999788.1919999951-.1124999972.1281999968-.1679999958.3681999907-.1679999958.7198999818v18.9120995222c-.6764999829.0959999976-1.3117999669.1604999959-1.9072999518.1919999951-.595499985.0321999992-1.0536999734.0479999988-1.3746999653.0479999988-1.1264999715,0-2.0437999484-.1274999968-2.7517999305-.3839999903Z"/>
  <path class="cls-6" d="M172.6012956397,39.9910989897c-.4161999895-1.5997999596-1.0724999729-2.9834999246-1.9679999503-4.1519998951-.8961999774-1.1677999705-2.0399999485-2.0879999473-3.4319999133-2.7599999303s-3.0644999226-1.0079999745-5.0159998733-1.0079999745c-.9599999757,0-1.9364999511.0644999984-2.927999926.1919999951-.9921999749.1281999968-1.9041999519.3201999919-2.7359999309.5759999854l-.0479999988-9.023999772c0-.4154999895-.079499998-.6794999828-.238499994-.79199998-.158999996-.1117999972-.4131999896-.1679999958-.7626999807-.1679999958h-4.910299876c-.3809999904,0-.6509999836.0644999984-.8099999795.1919999951-.158999996.1281999968-.238499994.3839999903-.238499994.7679999806v31.3439992082c0,.3524999911.0479999988.6404999838.1439999964.8639999782.0959999976.2241999943.3359999915.4161999895.7199999818.5759999854,1.4714999628.671999983,3.1199999212,1.1519999709,4.9439998751,1.4399999636s3.5999999091.4319999891,5.3279998654.4319999891c2.2394999434,0,4.1594998949-.3524999911,5.7599998545-1.0559999733,1.5997999596-.7034999822,2.9039999266-1.6559999582,3.9119999012-2.8559999279s1.7437999559-2.6077999341,2.2079999442-4.2239998933c.4634999883-1.6154999592.6959999824-3.3517999153.6959999824-5.2079998684,0-1.8239999539-.2084999947-3.5354999107-.6239999842-5.1359998703ZM164.4330958461,50.9297987134c-1.028999974,1.0919999724-2.4284999387,1.6372999586-4.196999894,1.6372999586-.4499999886,0-1.028999974-.0314999992-1.7369999561-.0959999976s-1.3829999651-.1927999951-2.0257999488-.3854999903v-13.3882996618c.7717999805-.2564999935,1.5599999606-.4251999893,2.3639999403-.5054999872.8039999797-.080199998,1.4144999643-.120699997,1.8329999537-.120699997,1.6724999577,0,2.9744999249.593999985,3.9074999013,1.781999955s1.3994999646,3.0021999242,1.3994999646,5.4419998625c0,2.6654999327-.515199987,4.5434998852-1.544199961,5.6346998577Z"/>
  <path class="cls-5" d="M199.3607949637,41.95909894c1.4399999636-.7679999806,2.5439999357-1.8719999527,3.3119999163-3.3119999163s1.1519999709-2.9759999248,1.1519999709-4.6079998836c0-2.9759999248-.9524999759-5.343799865-2.8559999279-7.1039998205-1.9042999519-1.7594999556-4.6004998838-2.6399999333-8.0879997957-2.6399999333h-11.7599997029c-1.1519999709,0-1.9199999515.2481999937-2.3039999418.7439999812-.3839999903.4964999875-.5759999854,1.2239999691-.5759999854,2.1839999448v29.7119992494c0,.3839999903.0876999978.6479999836.2639999933.79199998.1754999956.1439999964.4559999885.2159999945.8399999788.2159999945h5.1359998703c.4799999879,0,.7836999802-.0554999986.911999977-.1679999958.1274999968-.1117999972.1919999951-.3914999901.1919999951-.8399999788v-12.6239996811h4.6559998824c1.4399999636,0,2.5679999351.3044999923,3.3839999145.911999977.8159999794.6081999846,1.4316999638,1.6964999571,1.8479999533,3.2639999175l2.1119999466,8.4959997854c.159699996.4799999879.4319999891.7604999808.8159999794.8399999788.3839999903.080199998.751499981.119999997,1.1039999721.119999997h5.0399998727c.3839999903,0,.6156999844-.1357999966.6959999824-.4079999897.079499998-.2714999931.0876999978-.5039999873.0239999994-.6959999824l-2.4479999382-9.5999997575c-.2879999927-1.1197999717-.6562999834-2.1194999465-1.1039999721-2.9999999242-.4484999887-.8797999778-1.2164999693-1.5599999606-2.3039999418-2.0399999485l-.0479999988-.2399999939ZM195.232795068,37.327099057c-.7364999814.7199999818-1.8082999543,1.0799999727-3.2159999188,1.0799999727h-6.3839998387v-7.679999806h6.5279998351c.831699979,0,1.5194999616.119999997,2.0639999479.3599999909.5436999863.2399999939.9674999756.5444999862,1.2719999679.911999977.3036999923.3681999907.5196999869.7761999804.6479999836,1.2239999691.1274999968.4484999887.1919999951.8804999778.1919999951,1.2959999673,0,1.1519999709-.3682999907,2.0879999473-1.1039999721,2.8079999291Z"/>
  <path class="cls-5" d="M217.0483945169,24.583099379c-.2084999947-.4799999879-.4964999875-.8954999774-.8639999782-1.2479999685-.3682999907-.3517999911-.8002999798-.631499984-1.2959999673-.8399999788-.4964999875-.2077999948-1.0162999743-.3119999921-1.5599999606-.3119999921-.5444999862,0-1.0559999733.1041999974-1.5359999612.3119999921-.4799999879.2084999947-.9044999772.4881999877-1.2719999679.8399999788-.3682999907.3524999911-.6562999834.7679999806-.8639999782,1.2479999685-.2084999947.4799999879-.3119999921,1.0079999745-.3119999921,1.58399996,0,1.1204999717.3914999901,2.056499948,1.1759999703,2.8079999291.7836999802.752199981,1.7196999566,1.1279999715,2.8079999291,1.1279999715,1.1196999717,0,2.0714999477-.3757999905,2.8559999279-1.1279999715.7836999802-.751499981,1.1759999703-1.6874999574,1.1759999703-2.8079999291,0-.5759999854-.1042999974-1.1039999721-.3119999921-1.58399996ZM216.7363945248,33.606999151c0-.3516999911-.0644999984-.5833999853-.1919999951-.6958999824-.1282999968-.1117999972-.4162999895-.1679999958-.8639999782-.1679999958h-4.8959998763c-.3525999911,0-.6082999846.0561999986-.7679999806.1679999958-.1604999959.1124999972-.2399999939.3441999913-.2399999939.6958999824v23.472099407c0,.3524999911.079499998.5841999852.2399999939.6959999824.159699996.1124999972.4153999895.1679999958.7679999806.1679999958h4.8959998763c.4476999887,0,.7356999814-.0554999986.8639999782-.1679999958.1274999968-.1117999972.1919999951-.3434999913.1919999951-.6959999824v-23.472099407Z"/>
  <path class="cls-5" d="M240.7601939179,47.6230987969c-.4484999887-.8639999782-1.0484999735-1.6079999594-1.7999999545-2.2319999436-.752299981-.6239999842-1.6402999586-1.1677999705-2.6639999327-1.6319999588-1.0244999741-.4634999883-2.1119999466-.9194999768-3.2639999175-1.3679999654-1.4722999628-.5437999863-2.5042999367-1.0237999741-3.0959999218-1.4399999636-.592499985-.4154999895-.8879999776-.9434999762-.8879999776-1.58399996,0-.4154999895.1919999951-.8234999792.5759999854-1.2239999691.3839999903-.3997999899,1.0079999745-.5999999848,1.8719999527-.5999999848,1.0559999733,0,2.0796999475.0959999976,3.0719999224.2879999927.991499975.1919999951,2.0796999475.4641999883,3.2639999175.8159999794.3516999911.1281999968.6074999847.1679999958.7679999806.119999997.159699996-.0479999988.3036999923-.2474999937.4319999891-.5999999848l1.1999999697-3.0719999224c.1274999968-.3839999903.1754999956-.6637999832.1439999964-.8399999788-.0322999992-.1755999956-.2242999943-.3434999913-.5759999854-.5039999873-1.2164999693-.5437999863-2.5679999351-.951799976-4.0559998975-1.2239999691-1.4879999624-.2714999931-2.9519999254-.4079999897-4.391999889-.4079999897-1.6004999596,0-2.9842999246.2001999949-4.1519998951.5999999848-1.1684999705.4004999899-2.135999946.9359999764-2.9039999266,1.6079999594s-1.343999966,1.463999963-1.7279999563,2.37599994-.5759999854,1.8959999521-.5759999854,2.9519999254c0,.9921999749.1754999956,1.8644999529.5279999867,2.6159999339.3516999911.752199981.8639999782,1.424199964,1.5359999612,2.0159999491.671999983.592499985,1.4954999622,1.1444999711,2.4719999376,1.6559999582.9756999754.5121999871,2.1036999469,1.0079999745,3.3839999145,1.4879999624,1.5996999596.6081999846,2.7276999311,1.1361999713,3.3839999145,1.58399996.6554999834.4484999887.9839999751.9921999749.9839999751,1.6319999588,0,.6081999846-.2324999941,1.1121999719-.6959999824,1.5119999618-.4642999883.4004999899-1.2719999679.5999999848-2.4239999388.5999999848-.5122999871,0-1.0882999725-.0479999988-1.7279999563-.1439999964-.6404999838-.0959999976-1.3042999671-.2234999944-1.9919999497-.3839999903-.6884999826-.159799996-1.3522999658-.3434999913-1.9919999497-.5519999861-.6404999838-.2077999948-1.2164999693-.4237999893-1.7279999563-.6479999836-.3524999911-.159799996-.6164999844-.199499995-.79199998-.119999997-.1762999955.080199998-.3442999913.2961999925-.5039999873.6479999836l-1.3919999648,3.3119999163c-.1604999959.3201999919-.2159999945.5684999856-.1679999958.7439999812.0479999988.1761999955.199499995.3441999913.4559999885.5039999873,1.4076999644.832499979,3.0314999234,1.4324999638,4.8719998769,1.7999999545,1.8396999535.3674999907,3.5916999093.5519999861,5.2559998672.5519999861,2.9759999248,0,5.383499864-.6397999838,7.2239998175-1.9199999515,1.8396999535-1.2794999677,2.7599999303-3.2159999188,2.7599999303-5.8079998533,0-1.2157999693-.2242999943-2.255999943-.671999983-3.1199999212Z"/>
  <path class="cls-5" d="M251.4926936468,33.0070991662c-1.4564999632.592499985-2.7044999317,1.463999963-3.7439999054,2.6159999339-1.0402999737,1.1519999709-1.8404999535,2.5521999355-2.3999999394,4.1999998939-.5602999858,1.6484999584-.8399999788,3.5279999109-.8399999788,5.6399998575,0,4.511999886,1.0079999745,7.8081998027,3.0239999236,9.8879997502,2.0159999491,2.0804999474,5.1194998707,3.1199999212,9.3119997648,3.1199999212,1.343999966,0,2.7996999293-.1679999958,4.3679998897-.5039999873,1.5674999604-.3359999915,2.9436999256-.8879999776,4.1279998957-1.6559999582.2556999935-.159799996.4236999893-.3194999919.5039999873-.4799999879.079499998-.159799996.0554999986-.3839999903-.0719999982-.671999983l-1.5359999612-3.4559999127c-.1282999968-.2557999935-.2639999933-.4079999897-.4079999897-.4559999885s-.4079999897-.0074999998-.79199998.119999997c-.832499979.3524999911-1.7279999563.6404999838-2.6879999321.8639999782-.9599999757.2241999943-1.9042999519.3359999915-2.8319999285.3359999915-.8001999798,0-1.544299961-.079499998-2.2319999436-.2399999939-.6884999826-.159799996-1.2884999674-.4477999887-1.7999999545-.8639999782-.5122999871-.4154999895-.9202999768-.9599999757-1.2239999691-1.6319999588-.3044999923-.671999983-.4724999881-1.5194999616-.5039999873-2.5439999357h12.2879996896c1.1197999717,0,1.9994999495-.3037999923,2.6399999333-.911999977.6396999838-.6074999847.9599999757-1.7437999559.9599999757-3.4079999139,0-3.4874999119-.9359999764-6.1679998442-2.8079999291-8.0399997969s-4.6799998818-2.8079999291-8.4239997872-2.8079999291c-1.8239999539,0-3.4642999125.2961999925-4.9199998757.8879999776ZM258.6686934655,38.2630990334c.5436999863.2564999935.9756999754.5999999848,1.2959999673,1.0319999739.3194999919.4319999891.5519999861.9524999759.6959999824,1.5599999606.1439999964.6081999846.2159999945,1.2644999681.2159999945,1.9679999503h-8.9759997732c.1274999968-1.4399999636.6074999847-2.6234999337,1.4399999636-3.5519999103.831799979-.9277999766,1.9034999519-1.3919999648,3.2159999188-1.3919999648.8639999782,0,1.5674999604.1281999968,2.1119999466.3839999903Z"/>
</svg>