<svg width="53" height="37" viewBox="0 0 53 37" fill="none" xmlns="http://www.w3.org/2000/svg">
<path d="M19.3604 3.36426C15.2979 6.96126 13.2666 11.5104 13.2666 17.0117L13.3936 18.7256C18.1755 19.6989 20.5664 22.5977 20.5664 27.4219C20.5664 30.0456 19.6354 32.2038 17.7734 33.8965C15.9538 35.5469 13.7109 36.3721 11.0449 36.3721C7.6595 36.3721 4.97233 35.1025 2.9834 32.5635C0.994466 29.9821 0 26.6602 0 22.5977C0 17.181 1.81966 12.3145 5.45898 7.99805C9.14062 3.63932 13.7744 0.973307 19.3604 0V3.36426ZM51.7334 3.36426C47.6709 6.96126 45.6396 11.5104 45.6396 17.0117L45.7666 18.7256C50.5062 19.6566 52.876 22.5553 52.876 27.4219C52.876 30.0456 51.9661 32.2038 50.1465 33.8965C48.3268 35.5469 46.084 36.3721 43.418 36.3721C40.0326 36.3721 37.3454 35.1237 35.3564 32.627C33.3675 30.1302 32.373 26.7871 32.373 22.5977C32.373 17.3503 34.1716 12.526 37.7686 8.125C41.4079 3.68164 46.0628 0.973307 51.7334 0V3.36426Z" fill="white"/>
</svg>
