<svg width="64" height="44" viewBox="0 0 64 44" fill="none" xmlns="http://www.w3.org/2000/svg">
<path d="M23.3786 4.12035C18.5529 8.39316 16.14 13.797 16.14 20.3319L16.2908 22.3678C21.9711 23.5239 24.8113 26.9673 24.8113 32.6979C24.8113 35.8145 23.7054 38.3782 21.4935 40.3889C19.332 42.3494 16.6678 43.3296 13.5009 43.3296C9.47942 43.3296 6.28739 41.8216 3.92477 38.8055C1.56216 35.7391 0.380859 31.7931 0.380859 26.9673C0.380859 20.533 2.5424 14.7521 6.86547 9.62473C11.2388 4.4471 16.7432 1.28019 23.3786 0.124023V4.12035ZM61.8339 4.12035C57.0081 8.39316 54.5952 13.797 54.5952 20.3319L54.746 22.3678C60.3761 23.4737 63.1911 26.917 63.1911 32.6979C63.1911 35.8145 62.1103 38.3782 59.9488 40.3889C57.7873 42.3494 55.123 43.3296 51.9561 43.3296C47.9347 43.3296 44.7426 41.8467 42.38 38.8809C40.0174 35.9151 38.8361 31.9439 38.8361 26.9673C38.8361 20.734 40.9725 15.0034 45.2453 9.77554C49.5684 4.49737 55.0979 1.28019 61.8339 0.124023V4.12035Z" fill="#4CA30D"/>
</svg>
