<svg width="151" height="108" viewBox="0 0 151 108" fill="none" xmlns="http://www.w3.org/2000/svg">
<path d="M133.323 103.625C133.264 104.899 134.249 105.98 135.523 106.039C136.797 106.098 137.878 105.113 137.937 103.839L133.323 103.625ZM58.7629 56.8855L57.3851 58.7393L57.3856 58.7396L58.7629 56.8855ZM101.754 26.6708L99.4965 27.1581L99.4965 27.1584L101.754 26.6708ZM3.25435 28.3142C2.45977 29.3121 2.62462 30.7652 3.62253 31.5598C4.62047 32.3544 6.07356 32.1896 6.86815 31.1916L3.25435 28.3142ZM145.861 97.6195C146.744 96.6998 146.715 95.2376 145.796 94.3538C144.876 93.4699 143.414 93.4991 142.53 94.4189L145.861 97.6195ZM135.659 104.903L134.284 106.759C135.217 107.45 136.519 107.341 137.324 106.503L135.659 104.903ZM126.737 95.7457C125.639 95.0967 124.222 95.4607 123.573 96.5588C122.924 97.6569 123.288 99.0733 124.386 99.7224L126.737 95.7457ZM135.63 103.732C137.937 103.839 137.937 103.838 137.937 103.837C137.937 103.836 137.937 103.835 137.937 103.834C137.937 103.831 137.938 103.827 137.938 103.823C137.938 103.814 137.939 103.801 137.939 103.786C137.941 103.754 137.943 103.708 137.945 103.649C137.949 103.531 137.955 103.359 137.96 103.137C137.972 102.692 137.984 102.044 137.986 101.219C137.99 99.5681 137.956 97.2037 137.803 94.3253C137.496 88.5754 136.712 80.7393 134.795 72.427C130.992 55.941 122.554 36.8684 103.748 29.2432L102.012 33.5241C118.644 40.2675 126.581 57.3691 130.294 73.4652C132.134 81.4439 132.893 89.0008 133.19 94.5711C133.338 97.3528 133.371 99.6304 133.366 101.207C133.364 101.994 133.353 102.606 133.342 103.018C133.337 103.224 133.332 103.379 133.328 103.481C133.326 103.532 133.325 103.57 133.324 103.594C133.323 103.606 133.323 103.615 133.323 103.62C133.323 103.623 133.323 103.624 133.323 103.625C133.323 103.626 133.323 103.626 133.323 103.626C133.323 103.626 133.323 103.625 135.63 103.732ZM103.748 29.2432C85.2951 21.7617 70.0867 25.7934 61.1531 33.3508C56.7287 37.0937 53.7822 41.7659 52.906 46.3615C52.0154 51.0329 53.2902 55.6957 57.3851 58.7393L60.1407 55.0318C57.7197 53.2324 56.8215 50.49 57.4437 47.2266C58.0804 43.8874 60.3328 40.0955 64.1366 36.8776C71.6596 30.5134 85.0254 26.637 102.012 33.5241L103.748 29.2432ZM57.3856 58.7396C61.2138 61.5834 66.4929 62.6754 71.9166 62.4415C77.3793 62.2059 83.2448 60.6202 88.4776 57.8035C98.9702 52.1555 107.272 41.2822 104.012 26.1833L99.4965 27.1584C102.202 39.6898 95.5247 48.764 86.2881 53.7359C81.6564 56.2291 76.4698 57.6214 71.7176 57.8264C66.9265 58.0329 62.8279 57.0279 60.1402 55.0314L57.3856 58.7396ZM104.012 26.1836C102.334 18.4088 96.6985 12.4691 89.1443 8.50486C81.5925 4.54193 71.9391 2.43757 61.6991 2.3477C41.2536 2.16826 17.8124 10.0304 3.25435 28.3142L6.86815 31.1916C20.3275 14.2877 42.2523 6.79662 61.6585 6.96694C71.3444 7.05194 80.2384 9.04821 86.9977 12.5953C93.7546 16.141 98.1936 21.1206 99.4965 27.1581L104.012 26.1836ZM142.53 94.4189L133.993 103.302L137.324 106.503L145.861 97.6195L142.53 94.4189ZM135.659 104.903C137.034 103.047 137.034 103.047 137.034 103.047C137.034 103.047 137.034 103.047 137.033 103.047C137.033 103.046 137.033 103.046 137.032 103.046C137.031 103.045 137.03 103.044 137.028 103.042C137.024 103.039 137.018 103.035 137.01 103.029C136.995 103.018 136.972 103.001 136.942 102.979C136.882 102.935 136.794 102.87 136.682 102.787C136.458 102.622 136.135 102.384 135.742 102.095C134.955 101.517 133.884 100.733 132.747 99.9097C130.524 98.301 127.895 96.4302 126.737 95.7457L124.386 99.7224C125.314 100.271 127.734 101.984 130.038 103.652C131.164 104.467 132.226 105.244 133.007 105.817C133.397 106.104 133.717 106.34 133.939 106.504C134.05 106.586 134.136 106.649 134.195 106.693C134.224 106.714 134.247 106.731 134.261 106.742C134.269 106.748 134.275 106.752 134.278 106.755C134.28 106.756 134.282 106.757 134.282 106.758C134.283 106.758 134.283 106.758 134.283 106.758C134.284 106.759 134.284 106.759 134.284 106.759C134.284 106.759 134.284 106.759 135.659 104.903Z" fill="#4CA30D"/>
</svg>
