<svg width="60" height="60" viewBox="0 0 60 60" fill="none" xmlns="http://www.w3.org/2000/svg">
<path d="M30 54C16.7666 54 6 43.2334 6 30C6 16.7666 16.7666 6 30 6C32.1724 6 34.3271 6.29004 36.3984 6.86133C37.1982 7.08398 37.667 7.91016 37.4473 8.70703C37.2246 9.50391 36.3926 9.96387 35.6016 9.75586C33.7881 9.25488 31.9028 9 30 9C18.4204 9 9 18.4219 9 30C9 41.5781 18.4204 51 30 51C41.5781 51 51 41.5781 51 30C51 28.0957 50.7451 26.2119 50.2441 24.3984C50.0244 23.6016 50.4932 22.7754 51.293 22.5527C52.084 22.3418 52.9189 22.8047 53.1387 23.6016C53.71 25.6729 54 27.8262 54 30C54 43.2334 43.2334 54 30 54Z" fill="#333333"/>
<path d="M30 45.8174C29.1709 45.8174 28.5 45.1465 28.5 44.3174V15.6826C28.5 14.8535 29.1709 14.1826 30 14.1826C30.8291 14.1826 31.5 14.8535 31.5 15.6826V44.3174C31.5 45.1465 30.8291 45.8174 30 45.8174Z" fill="#333333"/>
<path d="M45 20.9561C44.1709 20.9561 43.5 20.2852 43.5 19.4561V10.5439C43.5 9.71484 44.1709 9.04395 45 9.04395C45.8291 9.04395 46.5 9.71484 46.5 10.5439V19.4561C46.5 20.2852 45.8291 20.9561 45 20.9561Z" fill="#63A132"/>
<path d="M49.459 16.5H40.5469C39.7178 16.5 39.0469 15.8291 39.0469 15C39.0469 14.1709 39.7178 13.5 40.5469 13.5H49.459C50.2881 13.5 50.959 14.1709 50.959 15C50.959 15.8291 50.2881 16.5 49.459 16.5Z" fill="#63A132"/>
<path d="M29.9971 43.5C25.0811 43.5 21.082 40.1367 21.082 36C21.082 35.1709 21.7529 34.5 22.582 34.5C23.4111 34.5 24.082 35.1709 24.082 36C24.082 38.4814 26.7349 40.5 29.9971 40.5C33.2578 40.5 35.9121 38.4814 35.9121 36C35.9121 33.5186 33.2578 31.5 29.9971 31.5C25.0811 31.5 21.082 28.1367 21.082 24C21.082 19.8633 25.0811 16.5 29.9971 16.5C34.9131 16.5 38.9121 19.8633 38.9121 24C38.9121 24.8291 38.2412 25.5 37.4121 25.5C36.583 25.5 35.9121 24.8291 35.9121 24C35.9121 21.5186 33.2578 19.5 29.9971 19.5C26.7349 19.5 24.082 21.5186 24.082 24C24.082 26.4814 26.7349 28.5 29.9971 28.5C34.9131 28.5 38.9121 31.8633 38.9121 36C38.9121 40.1367 34.9131 43.5 29.9971 43.5Z" fill="#333333"/>
</svg>
