<svg width="60" height="60" viewBox="0 0 60 60" fill="none" xmlns="http://www.w3.org/2000/svg">
<path d="M29.5176 46.4938C28.7076 46.4645 28.0469 45.7731 28.0777 44.9352C28.107 44.1237 28.7676 43.4645 29.607 43.4938C30.4478 43.5231 31.0777 44.2145 31.0777 45.0231C31.0469 45.8639 30.3878 46.4938 29.5777 46.4938H29.5176ZM39.3878 41.8151C38.8179 41.2145 38.8179 40.2535 39.417 39.6852C40.0176 39.1139 40.9478 39.1139 41.5176 39.7145C42.1182 40.3151 42.0875 41.2731 41.4869 41.8444C41.2173 42.1139 40.8277 42.2633 40.438 42.2633C40.0469 42.2633 39.6573 42.1139 39.3878 41.8151ZM17.8472 41.153C17.2774 40.5553 17.3375 39.5944 17.938 39.0231C18.5372 38.484 19.4981 38.5133 20.0679 39.1139C20.607 39.7438 20.5777 40.6754 19.9478 41.2438C19.6783 41.5133 19.3179 41.6334 18.9576 41.6334C18.5372 41.6334 18.1475 41.484 17.8472 41.153ZM43.4981 29.9938C43.4981 29.1852 44.1573 28.4938 44.9981 28.4938C45.8375 28.4938 46.4981 29.1852 46.4981 29.9938C46.4981 30.8346 45.8375 31.4938 44.9981 31.4938C44.1573 31.4938 43.4981 30.8346 43.4981 29.9938ZM14.938 30.653C14.0972 30.5944 13.4673 29.8737 13.5274 29.0651C13.5582 28.2535 14.2774 27.5944 15.1182 27.653C15.9283 27.6852 16.5582 28.403 16.5274 29.2438C16.4673 30.0231 15.8082 30.653 15.0274 30.653H14.938ZM19.0469 19.6432C18.5079 19.0133 18.5679 18.0846 19.1978 17.5426C19.8277 17.0035 20.7579 17.0651 21.2969 17.6949C21.8682 18.2926 21.7774 19.2535 21.1475 19.7926C20.878 20.0328 20.5176 20.153 20.188 20.153C19.7676 20.153 19.3472 19.9742 19.0469 19.6432Z" fill="#63A132"/>
<path d="M30 54C16.7666 54 6 43.2334 6 30C6 16.7666 16.7666 6 30 6C43.2334 6 54 16.7666 54 30C54 43.2334 43.2334 54 30 54ZM30 9C18.4204 9 9 18.4219 9 30C9 41.5781 18.4204 51 30 51C41.5796 51 51 41.5781 51 30C51 18.4219 41.5796 9 30 9Z" fill="#333333"/>
<path d="M45 29.9949H30V14.9949C38.28 14.9949 45 21.7148 45 29.9949Z" fill="#63A132"/>
<path d="M45 31.4941H30C29.1709 31.4941 28.5 30.8232 28.5 29.9941V14.9941C28.5 14.165 29.1709 13.4941 30 13.4941C30.8291 13.4941 31.5 14.165 31.5 14.9941V28.4941H45C45.8291 28.4941 46.5 29.165 46.5 29.9941C46.5 30.8232 45.8291 31.4941 45 31.4941Z" fill="#333333"/>
</svg>
