<svg width="60" height="60" viewBox="0 0 60 60" fill="none" xmlns="http://www.w3.org/2000/svg">
<path d="M49.355 33.8979C49.2949 33.8979 49.2334 33.895 49.1704 33.8862C48.3486 33.7852 47.7642 33.0366 47.8652 32.2148C47.9546 31.4883 48 30.75 48 30C48 20.0742 39.9258 12 30 12C29.1709 12 28.5 11.3291 28.5 10.5C28.5 9.6709 29.1709 9 30 9C41.5796 9 51 18.4204 51 30C51 30.873 50.9458 31.7344 50.8418 32.5811C50.7495 33.3413 50.1021 33.8979 49.355 33.8979Z" fill="#333333"/>
<path d="M30 51C18.4204 51 9 41.5796 9 30C9 29.1709 9.6709 28.5 10.5 28.5C11.3291 28.5 12 29.1709 12 30C12 39.9258 20.0742 48 30 48C30.8291 48 31.5 48.6709 31.5 49.5C31.5 50.3291 30.8291 51 30 51Z" fill="#333333"/>
<path d="M49.4985 33.8643C49.1147 33.8643 48.731 33.7178 48.438 33.4248L44.2559 29.2427C43.6699 28.6567 43.6699 27.7075 44.2559 27.1216C44.8418 26.5356 45.791 26.5356 46.377 27.1216L49.4985 30.2432L52.6201 27.1216C53.2061 26.5356 54.1553 26.5356 54.7412 27.1216C55.3271 27.7075 55.3271 28.6567 54.7412 29.2427L50.5591 33.4248C50.2661 33.7178 49.8823 33.8643 49.4985 33.8643Z" fill="#333333"/>
<path d="M14.6807 33.5903C14.2969 33.5903 13.9131 33.4438 13.6201 33.1509L10.4985 30.0308L7.37695 33.1509C6.79102 33.7368 5.8418 33.7368 5.25586 33.1509C4.66992 32.5649 4.66992 31.6157 5.25586 31.0298L9.43799 26.8491C10.0239 26.2632 10.9731 26.2632 11.5591 26.8491L15.7412 31.0298C16.3271 31.6157 16.3271 32.5649 15.7412 33.1509C15.4482 33.4438 15.0645 33.5903 14.6807 33.5903Z" fill="#333333"/>
<path d="M30 30.8994C26.6924 30.8994 24 28.207 24 24.8994C24 21.5918 26.6924 18.8994 30 18.8994C33.3076 18.8994 36 21.5918 36 24.8994C36 28.207 33.3076 30.8994 30 30.8994ZM30 21.8994C28.3447 21.8994 27 23.2441 27 24.8994C27 26.5547 28.3447 27.8994 30 27.8994C31.6553 27.8994 33 26.5547 33 24.8994C33 23.2441 31.6553 21.8994 30 21.8994Z" fill="#63A132"/>
<path d="M37.9746 38.8711C37.1455 38.8711 36.4746 38.2002 36.4746 37.3711C36.4746 33.8027 33.5713 30.8994 30.0029 30.8994C26.4346 30.8994 23.5312 33.8027 23.5312 37.3711C23.5312 38.2002 22.8604 38.8711 22.0312 38.8711C21.2021 38.8711 20.5312 38.2002 20.5312 37.3711C20.5312 32.1475 24.7793 27.8994 30.0029 27.8994C35.2266 27.8994 39.4746 32.1475 39.4746 37.3711C39.4746 38.2002 38.8037 38.8711 37.9746 38.8711Z" fill="#63A132"/>
</svg>
