<svg width="60" height="60" viewBox="0 0 60 60" fill="none" xmlns="http://www.w3.org/2000/svg">
<path d="M26.9952 54.2871C26.5352 54.2871 26.1002 54.0762 25.816 53.7129L6.59431 29.2676C6.15925 28.7168 6.16804 27.9375 6.61189 27.3926L16.2227 15.6357C16.5084 15.2871 16.9346 15.085 17.3844 15.085H36.606C37.0557 15.085 37.482 15.2871 37.7677 15.6357L47.3785 27.3926C47.8223 27.9375 47.8311 28.7168 47.3961 29.2676L28.1744 53.7129C27.8902 54.0762 27.4552 54.2871 26.9952 54.2871ZM9.69539 28.3594L26.9952 50.3613L44.295 28.3594L35.8941 18.085H18.0963L9.69539 28.3594Z" fill="#333333"/>
<path d="M27.0011 54.2871C26.3273 54.2871 25.7355 53.8359 25.5553 53.1885L18.7804 28.7432C18.7072 28.4766 18.7086 28.1924 18.7848 27.9258L22.1715 16.1689C22.3561 15.5273 22.945 15.085 23.6129 15.085H30.3893C31.0573 15.085 31.6461 15.5273 31.8307 16.1689L35.2174 27.9258C35.2936 28.1924 35.2951 28.4766 35.2218 28.7432L28.4469 53.1885C28.2667 53.8359 27.6749 54.2871 27.0011 54.2871ZM21.7848 28.3506L27.0011 47.1709L32.2174 28.3506L29.2599 18.085H24.7423L21.7848 28.3506Z" fill="#333333"/>
<path d="M46.2246 29.8418H7.78125C6.95215 29.8418 6.28125 29.1709 6.28125 28.3418C6.28125 27.5127 6.95215 26.8418 7.78125 26.8418H46.2246C47.0537 26.8418 47.7246 27.5127 47.7246 28.3418C47.7246 29.1709 47.0537 29.8418 46.2246 29.8418Z" fill="#333333"/>
<path d="M52.6836 13.7666C52.2998 13.7666 51.916 13.6201 51.623 13.3271L48.002 9.70605L44.3809 13.3271C43.7949 13.9131 42.8457 13.9131 42.2598 13.3271C41.6738 12.7412 41.6738 11.792 42.2598 11.2061L46.9414 6.52441C47.5273 5.93848 48.4766 5.93848 49.0625 6.52441L53.7441 11.2061C54.3301 11.792 54.3301 12.7412 53.7441 13.3271C53.4512 13.6201 53.0674 13.7666 52.6836 13.7666Z" fill="#63A132"/>
<path d="M48 19.5C47.1709 19.5 46.5 18.8291 46.5 18V7.58496C46.5 6.75586 47.1709 6.08496 48 6.08496C48.8291 6.08496 49.5 6.75586 49.5 7.58496V18C49.5 18.8291 48.8291 19.5 48 19.5Z" fill="#63A132"/>
</svg>
