<?xml version="1.0" encoding="UTF-8"?><svg xmlns="http://www.w3.org/2000/svg" viewBox="0 0 20 20"><g id="Layer_3"><rect width="19.9999999973" height="20" rx="3" ry="3" style="fill:#63a132; stroke-width:0px;"/></g><g id="Layer_2"><path d="m15.5,8c-.1279296875,0-.255859375-.048828125-.353515625-.146484375l-5-5c-.1953125-.1953125-.1953125-.51171875,0-.70703125s.51171875-.1953125.70703125,0l5,5c.1953125.1953125.1953125.51171875,0,.70703125-.09765625.09765625-.2255859375.146484375-.353515625.146484375Z" style="fill:#fff; stroke-width:0px;"/><path d="m7.4809570312,14.8837890625c-.1279296875,0-.255859375-.048828125-.353515625-.146484375-.1953125-.1953125-.1953125-.51171875,0-.70703125l1.646484375-1.646484375-1.646484375-1.646484375c-.1953125-.1953125-.1953125-.51171875,0-.70703125s.51171875-.1953125.70703125,0l2,2c.1953125.1953125.1953125.51171875,0,.70703125l-2,2c-.09765625.09765625-.2255859375.146484375-.353515625.146484375Z" style="fill:#b1d098; stroke-width:0px;"/><path d="m11.9047851562,14.9853515625h-1c-.2763671875,0-.5-.2236328125-.5-.5s.2236328125-.5.5-.5h1c.2763671875,0,.5.2236328125.5.5s-.2236328125.5-.5.5Z" style="fill:#b1d098; stroke-width:0px;"/><path d="m15.5,18H4.5c-.2763671875,0-.5-.2236328125-.5-.5V2.5c0-.2763671875.2236328125-.5.5-.5h6c.2763671875,0,.5.2236328125.5.5v4.5h4.5c.2763671875,0,.5.2236328125.5.5v10c0,.2763671875-.2236328125.5-.5.5Zm-10.5-1h10v-9h-4.5c-.2763671875,0-.5-.2236328125-.5-.5V3h-5v14Z" style="fill:#fff; stroke-width:0px;"/></g></svg>