<?xml version="1.0" encoding="UTF-8"?><svg xmlns="http://www.w3.org/2000/svg" viewBox="0 0 20 20"><g id="Layer_3"><rect width="19.9999999973" height="20" rx="3" ry="3" style="fill:#63a132; stroke-width:0px;"/></g><g id="Layer_2"><path d="m10.7099609375,17.0693359375c-.26171875,0-.5244140625-.0639648438-.759765625-.1953125-3.7841796875-2.1123046875-6.033203125-4.7788085938-7.2529296875-6.6435546875-.8583984375-1.3110351562-1.021484375-2.9619140625-.4365234375-4.4155273438.5634765625-1.4008789062,1.7177734375-2.3959960938,3.1669921875-2.7294921875.8515625-.1958007812,1.8212890625-.2075195312,2.8798828125-.0346679688.2734375.0444335938.4580078125.3017578125.4130859375.57421875-.044921875.2729492188-.314453125.4560546875-.5732421875.4130859375-.931640625-.1518554688-1.76953125-.1450195312-2.4951171875.0219726562-1.1259765625.2592773438-2.0244140625,1.0346679688-2.4638671875,2.1279296875-.462890625,1.1508789062-.333984375,2.45703125.3447265625,3.4946289062,1.1591796875,1.7709960938,3.2978515625,4.3051757812,6.9052734375,6.318359375.2138671875.1215820312.5.0844726562.6875-.0942382812.1337890625-.1259765625.1982421875-.302734375.1787109375-.4853515625-.0205078125-.1850585938-.1240234375-.345703125-.2841796875-.44140625-.9580078125-.572265625-1.8701171875-1.2158203125-2.7109375-1.912109375-.212890625-.1762695312-.2431640625-.4912109375-.06640625-.7041015625.1748046875-.2133789062.4912109375-.2426757812.703125-.06640625.802734375.6640625,1.6728515625,1.2778320312,2.587890625,1.82421875.4306640625.2578125.7099609375.6918945312.763671875,1.1909179688.0546875.4970703125-.1220703125.9780273438-.484375,1.3208007812-.3037109375.2866210938-.703125.4360351562-1.103515625.4360351562Z" style="fill:#fff; stroke-width:0px;"/><path d="m16.5712890625,10.9204101562c-.099609375,0-.19921875-.029296875-.2861328125-.08984375-.2265625-.1577148438-.2822265625-.4697265625-.1240234375-.6962890625.1083984375-.1552734375.2099609375-.3056640625.3046875-.451171875.6796875-1.0380859375.80859375-2.3442382812.345703125-3.4951171875-.439453125-1.0932617188-1.337890625-1.8686523438-2.4638671875-2.1279296875-.146484375-.0336914062-.2998046875-.0615234375-.458984375-.0825195312-.990234375-.1284179688-2.06640625.12109375-3.03515625.7094726562l-3.4267578125,2.0786132812c-.1728515625.1044921875-.1669921875.2817382812-.1611328125.3334960938.0068359375.0610351562.0419921875.2084960938.2099609375.2631835938.7333984375.2392578125,1.5537109375.0756835938,2.4375-.4868164062.232421875-.1474609375.541015625-.0815429688.6904296875.1528320312.1484375.232421875.080078125.5415039062-.1533203125.6899414062-1.4267578125.9096679688-2.5712890625.8256835938-3.2841796875.5952148438-.4912109375-.16015625-.8330078125-.5810546875-.8935546875-1.0991210938-.0615234375-.529296875.181640625-1.0288085938.634765625-1.3037109375l3.4267578125-2.0791015625c1.1650390625-.7055664062,2.4794921875-1.00390625,3.6845703125-.8452148438.19140625.0249023438.3759765625.05859375.552734375.0991210938,1.4501953125.3334960938,2.6044921875,1.3286132812,3.16796875,2.7294921875.5849609375,1.4536132812.421875,3.1044921875-.4365234375,4.4155273438-.099609375.1528320312-.20703125.3120117188-.3212890625.4760742188-.09765625.1391601562-.2529296875.2138671875-.41015625.2138671875Z" style="fill:#b1d098; stroke-width:0px;"/><path d="m12.263671875,15.515625c-.26171875,0-.5244140625-.0639648438-.759765625-.1953125-.240234375-.134765625-.3271484375-.4389648438-.1923828125-.6801757812.1357421875-.2421875.4404296875-.3276367188.6806640625-.1928710938.21484375.1220703125.5.0830078125.6875-.0942382812.1337890625-.1259765625.1982421875-.302734375.1787109375-.4853515625-.0205078125-.1850585938-.1240234375-.345703125-.2841796875-.44140625-.9580078125-.572265625-1.8701171875-1.2158203125-2.7109375-1.912109375-.212890625-.1762695312-.2431640625-.4912109375-.06640625-.7041015625.17578125-.212890625.4921875-.2416992188.703125-.06640625.802734375.6640625,1.6728515625,1.2778320312,2.587890625,1.82421875.4306640625.2578125.7099609375.6918945312.763671875,1.1909179688.0546875.4970703125-.1220703125.9780273438-.484375,1.3208007812-.3037109375.2866210938-.703125.4360351562-1.103515625.4360351562Z" style="fill:#fff; stroke-width:0px;"/><path d="m13.8369140625,13.9428710938c-.26171875,0-.5234375-.0639648438-.759765625-.1953125-.240234375-.134765625-.3271484375-.4389648438-.1923828125-.6801757812.134765625-.2421875.4404296875-.3276367188.6806640625-.1928710938.21484375.1215820312.4990234375.0844726562.6865234375-.09375.1337890625-.1264648438.1982421875-.3037109375.1787109375-.486328125-.0205078125-.1850585938-.123046875-.345703125-.283203125-.4409179688-.9599609375-.5732421875-1.8720703125-1.216796875-2.7119140625-1.912109375-.212890625-.1762695312-.2431640625-.4912109375-.06640625-.7041015625.1748046875-.2133789062.4912109375-.2421875.703125-.06640625.8017578125.6630859375,1.671875,1.2768554688,2.5888671875,1.82421875.4306640625.2578125.708984375.69140625.763671875,1.1904296875.0546875.4965820312-.123046875.978515625-.4853515625,1.3212890625-.302734375.2866210938-.7021484375.4360351562-1.1025390625.4360351562Z" style="fill:#fff; stroke-width:0px;"/></g></svg>