<?xml version="1.0" encoding="UTF-8"?><svg xmlns="http://www.w3.org/2000/svg" viewBox="0 0 20 20"><g id="Layer_3"><rect width="19.9999999973" height="20" rx="3" ry="3" style="fill:#63a132; stroke-width:0px;"/></g><g id="Layer_2"><path d="m12,15.5c-2.4814453125,0-4.5-2.0185546875-4.5-4.5s2.0185546875-4.5,4.5-4.5,4.5,2.0185546875,4.5,4.5-2.0185546875,4.5-4.5,4.5Zm0-8c-1.9296875,0-3.5,1.5703125-3.5,3.5s1.5703125,3.5,3.5,3.5,3.5-1.5703125,3.5-3.5-1.5703125-3.5-3.5-3.5Z" style="fill:#fff; stroke-width:0px;"/><path d="m17.4140625,16.9140625c-.1279296875,0-.255859375-.048828125-.353515625-.146484375l-2.4140625-2.4140625c-.1953125-.1953125-.1953125-.51171875,0-.70703125s.51171875-.1953125.70703125,0l2.4140625,2.4140625c.1953125.1953125.1953125.51171875,0,.70703125-.09765625.09765625-.2255859375.146484375-.353515625.146484375Z" style="fill:#fff; stroke-width:0px;"/><path d="m15,6.5c-.1279296875,0-.255859375-.048828125-.353515625-.146484375-.1953125-.1953125-.1953125-.51171875,0-.70703125l2.5-2.5c.1953125-.1953125.51171875-.1953125.70703125,0s.1953125.51171875,0,.70703125l-2.5,2.5c-.09765625.09765625-.2255859375.146484375-.353515625.146484375Z" style="fill:#b1d098; stroke-width:0px;"/><path d="m1.9736328125,10.5c-.1279296875,0-.255859375-.048828125-.353515625-.146484375-.1953125-.1953125-.1953125-.51171875,0-.70703125l5.0126953125-5.0131835938c.1953125-.1953125.51171875-.1953125.70703125,0l1.513671875,1.5131835938c.1953125.1953125.1953125.51171875,0,.70703125s-.51171875.1953125-.70703125,0l-1.16015625-1.1596679688-4.6591796875,4.6596679688c-.09765625.09765625-.2255859375.146484375-.353515625.146484375Z" style="fill:#b1d098; stroke-width:0px;"/><path d="m12,12.62109375c-.1279296875,0-.255859375-.048828125-.353515625-.146484375l-2.12109375-2.12109375c-.1953125-.1953125-.1953125-.51171875,0-.70703125s.51171875-.1953125.70703125,0l1.767578125,1.767578125,1.767578125-1.767578125c.1953125-.1953125.51171875-.1953125.70703125,0s.1953125.51171875,0,.70703125l-2.12109375,2.12109375c-.09765625.09765625-.2255859375.146484375-.353515625.146484375Z" style="fill:#b1d098; stroke-width:0px;"/></g></svg>