<?xml version="1.0" encoding="UTF-8"?><svg xmlns="http://www.w3.org/2000/svg" viewBox="0 0 20 20"><g id="Layer_3"><rect width="19.9999999973" height="20" rx="3" ry="3" style="fill:#63a132; stroke-width:0px;"/></g><g id="Layer_2"><path d="m14,7.9750976562c-.1279296875,0-.255859375-.048828125-.353515625-.146484375-.1953125-.1953125-.1953125-.51171875,0-.70703125l2.12109375-2.1215820312-2.12109375-2.1215820312c-.1953125-.1953125-.1953125-.51171875,0-.70703125s.51171875-.1953125.70703125,0l2.474609375,2.4750976562c.1953125.1953125.1953125.51171875,0,.70703125l-2.474609375,2.4750976562c-.09765625.09765625-.2255859375.146484375-.353515625.146484375Z" style="fill:#fff; stroke-width:0px;"/><path d="m4.5,14.5h-2.5c-.2763671875,0-.5-.2236328125-.5-.5s.2236328125-.5.5-.5h2.5c2.2060546875,0,4-1.7944335938,4-4,0-2.7568359375,2.2431640625-5,5-5h2.974609375c.2763671875,0,.5.2236328125.5.5s-.2236328125.5-.5.5h-2.974609375c-2.2060546875,0-4,1.7944335938-4,4,0,2.7568359375-2.2431640625,5-5,5Z" style="fill:#fff; stroke-width:0px;"/><path d="m7.3623046875,7.52734375c-.1123046875,0-.224609375-.0375976562-.318359375-.1142578125-.712890625-.5888671875-1.6162109375-.9130859375-2.5439453125-.9130859375h-2.5c-.2763671875,0-.5-.2236328125-.5-.5s.2236328125-.5.5-.5h2.5c1.1591796875,0,2.2880859375.4052734375,3.1806640625,1.1416015625.212890625.17578125.2431640625.4912109375.0673828125.7041015625-.0986328125.1196289062-.2421875.181640625-.3857421875.181640625Z" style="fill:#b1d098; stroke-width:0px;"/><path d="m16.474609375,15.5h-2.974609375c-.994140625,0-1.955078125-.2915039062-2.7783203125-.8422851562-.4091796875-.2744140625-.7744140625-.6059570312-1.0869140625-.9853515625-.1748046875-.2133789062-.1435546875-.5283203125.0693359375-.7036132812.2119140625-.17578125.5263671875-.14453125.7041015625.0688476562.2490234375.3041992188.5419921875.5693359375.8701171875.7890625.658203125.4404296875,1.42578125.6733398438,2.2216796875.6733398438h2.974609375c.2763671875,0,.5.2236328125.5.5s-.2236328125.5-.5.5Z" style="fill:#b1d098; stroke-width:0px;"/><path d="m14,17.9750976562c-.1279296875,0-.255859375-.048828125-.353515625-.146484375-.1953125-.1953125-.1953125-.51171875,0-.70703125l2.12109375-2.1215820312-2.12109375-2.1215820312c-.1953125-.1953125-.1953125-.51171875,0-.70703125s.51171875-.1953125.70703125,0l2.474609375,2.4750976562c.1953125.1953125.1953125.51171875,0,.70703125l-2.474609375,2.4750976562c-.09765625.09765625-.2255859375.146484375-.353515625.146484375Z" style="fill:#b1d098; stroke-width:0px;"/></g></svg>