<?xml version="1.0" encoding="UTF-8"?><svg xmlns="http://www.w3.org/2000/svg" viewBox="0 0 20 20"><g id="Layer_3"><rect width="19.9999999973" height="20" rx="3" ry="3" style="fill:#63a132; stroke-width:0px;"/></g><g id="Layer_2"><path d="m15.5,18H4.5c-.8271484375,0-1.5-.6728515625-1.5-1.5V6c0-.8271484375.6728515625-1.5,1.5-1.5h9c.2763671875,0,.5.2236328125.5.5s-.2236328125.5-.5.5H4.5c-.2758789062,0-.5.2241210938-.5.5v10.5c0,.2758789062.2241210938.5.5.5h11c.275390625,0,.5-.2241210938.5-.5v-5c0-.2763671875.2236328125-.5.5-.5s.5.2236328125.5.5v5c0,.8271484375-.6728515625,1.5-1.5,1.5Z" style="fill:#fff; stroke-width:0px;"/><path d="m11,15.0102539062h-5c-.2763671875,0-.5-.2236328125-.5-.5s.2236328125-.5.5-.5h5c.2763671875,0,.5.2236328125.5.5s-.2236328125.5-.5.5Z" style="fill:#b1d098; stroke-width:0px;"/><path d="m14,15.0102539062h-1c-.2763671875,0-.5-.2236328125-.5-.5s.2236328125-.5.5-.5h1c.2763671875,0,.5.2236328125.5.5s-.2236328125.5-.5.5Z" style="fill:#b1d098; stroke-width:0px;"/><path d="m11,15.0102539062h-5c-.2763671875,0-.5-.2236328125-.5-.5s.2236328125-.5.5-.5h5c.2763671875,0,.5.2236328125.5.5s-.2236328125.5-.5.5Z" style="fill:#b1d098; stroke-width:0px;"/><path d="m14,15.0102539062h-1c-.2763671875,0-.5-.2236328125-.5-.5s.2236328125-.5.5-.5h1c.2763671875,0,.5.2236328125.5.5s-.2236328125.5-.5.5Z" style="fill:#b1d098; stroke-width:0px;"/><path d="m14,11.9897460938h-5c-.2763671875,0-.5-.2236328125-.5-.5s.2236328125-.5.5-.5h5c.2763671875,0,.5.2236328125.5.5s-.2236328125.5-.5.5Z" style="fill:#b1d098; stroke-width:0px;"/><path d="m7,11.9897460938h-1c-.2763671875,0-.5-.2236328125-.5-.5s.2236328125-.5.5-.5h1c.2763671875,0,.5.2236328125.5.5s-.2236328125.5-.5.5Z" style="fill:#b1d098; stroke-width:0px;"/><path d="m14,11.9897460938h-5c-.2763671875,0-.5-.2236328125-.5-.5s.2236328125-.5.5-.5h5c.2763671875,0,.5.2236328125.5.5s-.2236328125.5-.5.5Z" style="fill:#b1d098; stroke-width:0px;"/><path d="m7,11.9897460938h-1c-.2763671875,0-.5-.2236328125-.5-.5s.2236328125-.5.5-.5h1c.2763671875,0,.5.2236328125.5.5s-.2236328125.5-.5.5Z" style="fill:#b1d098; stroke-width:0px;"/><path d="m8,8.99609375h-2c-.2763671875,0-.5-.2236328125-.5-.5s.2236328125-.5.5-.5h2c.2763671875,0,.5.2236328125.5.5s-.2236328125.5-.5.5Z" style="fill:#b1d098; stroke-width:0px;"/><path d="m8,8.99609375h-2c-.2763671875,0-.5-.2236328125-.5-.5s.2236328125-.5.5-.5h2c.2763671875,0,.5.2236328125.5.5s-.2236328125.5-.5.5Z" style="fill:#b1d098; stroke-width:0px;"/><path d="m14,7.9750976562c-.1279296875,0-.255859375-.048828125-.353515625-.146484375-.1953125-.1953125-.1953125-.51171875,0-.70703125l2.12109375-2.1215820312-2.12109375-2.1215820312c-.1953125-.1953125-.1953125-.51171875,0-.70703125s.51171875-.1953125.70703125,0l2.474609375,2.4750976562c.1953125.1953125.1953125.51171875,0,.70703125l-2.474609375,2.4750976562c-.09765625.09765625-.2255859375.146484375-.353515625.146484375Z" style="fill:#fff; stroke-width:0px;"/><path d="m15.5,18H4.5c-.8271484375,0-1.5-.6728515625-1.5-1.5V6c0-.8271484375.6728515625-1.5,1.5-1.5h9c.2763671875,0,.5.2236328125.5.5s-.2236328125.5-.5.5H4.5c-.2758789062,0-.5.2241210938-.5.5v10.5c0,.2758789062.2241210938.5.5.5h11c.275390625,0,.5-.2241210938.5-.5v-5c0-.2763671875.2236328125-.5.5-.5s.5.2236328125.5.5v5c0,.8271484375-.6728515625,1.5-1.5,1.5Z" style="fill:#fff; stroke-width:0px;"/><path d="m14,7.9750976562c-.1279296875,0-.255859375-.048828125-.353515625-.146484375-.1953125-.1953125-.1953125-.51171875,0-.70703125l2.12109375-2.1215820312-2.12109375-2.1215820312c-.1953125-.1953125-.1953125-.51171875,0-.70703125s.51171875-.1953125.70703125,0l2.474609375,2.4750976562c.1953125.1953125.1953125.51171875,0,.70703125l-2.474609375,2.4750976562c-.09765625.09765625-.2255859375.146484375-.353515625.146484375Z" style="fill:#fff; stroke-width:0px;"/></g></svg>