<?xml version="1.0" encoding="UTF-8"?><svg xmlns="http://www.w3.org/2000/svg" viewBox="0 0 20 20"><g id="Layer_3"><rect width="19.9999999973" height="20" rx="3" ry="3" style="fill:#63a132; stroke-width:0px;"/></g><g id="Layer_2"><path d="m5.5400390625,5.25c-.1704101562-.2202148438-.1401367188-.5302734375.0795898438-.7099609375h0c.2099609375-.1704101562.5302734375-.1401367188.7001953125.0795898438h0c.169921875.2099609375.1401367188.5302734375-.080078125.7001953125h0c-.08984375.080078125-.1997070312.1098632812-.3100585938.1098632812h0c-.1499023438,0-.2900390625-.0600585938-.3896484375-.1796875Zm1.8295898438-1.2202148438c-.08984375-.259765625.0502929688-.5400390625.3100585938-.6298828125h0c.2602539062-.1000976562.5400390625.0400390625.6303710938.2998046875h0c.099609375.2602539062-.0400390625.5502929688-.3002929688.6401367188h0c-.0600585938.0200195312-.1098632812.0297851562-.169921875.0297851562h0c-.2001953125,0-.3999023438-.1298828125-.4702148438-.33984375Z" style="fill:#fff; stroke-width:0px;"/><path d="m16.4516601562,11.2993164062c-.0200195312,0-.0405273438-.0009765625-.0615234375-.00390625-.2739257812-.0336914062-.46875-.283203125-.4350585938-.5571289062.0297851562-.2421875.044921875-.48828125.044921875-.73828125,0-3.30859375-2.69140625-6-6-6-.2763671875,0-.5-.2236328125-.5-.5s.2236328125-.5.5-.5c3.8598632812,0,7,3.1401367188,7,7,0,.291015625-.0180664062.578125-.052734375.8603515625-.0307617188.2534179688-.2465820312.4389648438-.4956054688.4389648438Z" style="fill:#fff; stroke-width:0px;"/><path d="m11.6899414062,16.2998046875c-.0903320312-.259765625.0400390625-.5498046875.2998046875-.6401367188h0c.2602539062-.08984375.5502929688.0502929688.6401367188.3100585938h0c.08984375.2602539062-.0502929688.5400390625-.3100585938.6298828125v.0102539062c-.0498046875.0200195312-.1098632812.0200195312-.16015625.0200195312h0c-.2099609375,0-.3999023438-.1201171875-.4697265625-.330078125Zm1.9897460938-.919921875c-.169921875-.2099609375-.1396484375-.5302734375.080078125-.7001953125h0c.2099609375-.1796875.5302734375-.1396484375.7001953125.080078125h0c.169921875.2099609375.1396484375.5200195312-.0703125.7001953125h0c-.099609375.0698242188-.2099609375.1098632812-.3198242188.1098632812h0c-.1401367188,0-.2900390625-.0698242188-.3901367188-.1899414062Z" style="fill:#b1d098; stroke-width:0px;"/><path d="m10,17c-3.8598632812,0-7-3.1401367188-7-7,0-.2763671875.2236328125-.5.5-.5s.5.2236328125.5.5c0,3.30859375,2.69140625,6,6,6,.2763671875,0,.5.2236328125.5.5s-.2236328125.5-.5.5Z" style="fill:#b1d098; stroke-width:0px;"/><path d="m16.5,11.2880859375c-.1279296875,0-.255859375-.048828125-.353515625-.146484375l-1.3940429688-1.3940429688c-.1953125-.1953125-.1953125-.51171875,0-.70703125s.51171875-.1953125.70703125,0l1.0405273438,1.0405273438,1.0405273438-1.0405273438c.1953125-.1953125.51171875-.1953125.70703125,0s.1953125.51171875,0,.70703125l-1.3940429688,1.3940429688c-.09765625.09765625-.2255859375.146484375-.353515625.146484375Z" style="fill:#fff; stroke-width:0px;"/><path d="m4.8940429688,11.1967773438c-.1279296875,0-.255859375-.048828125-.353515625-.146484375l-1.0405273438-1.0400390625-1.0405273438,1.0400390625c-.1953125.1953125-.51171875.1953125-.70703125,0s-.1953125-.51171875,0-.70703125l1.3940429688-1.3935546875c.1953125-.1953125.51171875-.1953125.70703125,0l1.3940429688,1.3935546875c.1953125.1953125.1953125.51171875,0,.70703125-.09765625.09765625-.2255859375.146484375-.353515625.146484375Z" style="fill:#b1d098; stroke-width:0px;"/><circle cx="10" cy="10" r="1.5070915609" style="fill:#b1d098; stroke-width:0px;"/></g></svg>