<?xml version="1.0" encoding="UTF-8"?><svg xmlns="http://www.w3.org/2000/svg" viewBox="0 0 20 20"><g id="Layer_3"><rect width="19.9999999973" height="20" rx="3" ry="3" style="fill:#63a132; stroke-width:0px;"/></g><g id="Layer_2"><path d="m15.5,17H2c-.2763671875,0-.5-.2236328125-.5-.5s.2236328125-.5.5-.5h13.5c.275390625,0,.5-.2241210938.5-.5V2c0-.2763671875.2236328125-.5.5-.5s.5.2236328125.5.5v13.5c0,.8271484375-.6728515625,1.5-1.5,1.5Z" style="fill:#fff; stroke-width:0px;"/><path d="m3.5,18.5c-.2763671875,0-.5-.2236328125-.5-.5V4.5c0-.8271484375.6728515625-1.5,1.5-1.5h13.5c.2763671875,0,.5.2236328125.5.5s-.2236328125.5-.5.5H4.5c-.2758789062,0-.5.2241210938-.5.5v13.5c0,.2763671875-.2236328125.5-.5.5Z" style="fill:#fff; stroke-width:0px;"/><path d="m14,14.0439453125H6c-.1772460938,0-.3408203125-.09375-.4306640625-.24609375-.08984375-.1528320312-.0922851562-.341796875-.0063476562-.4965820312l2.521484375-4.5439453125c.080078125-.14453125.2265625-.240234375.3911132812-.2553710938.1630859375-.0200195312.3256835938.0517578125.4311523438.1796875l2.1284179688,2.576171875.611328125-.611328125c.1005859375-.1015625.236328125-.15234375.3828125-.1455078125.1435546875.0083007812.275390625.0776367188.3642578125.1899414062l2,2.5439453125c.1181640625.150390625.1396484375.35546875.056640625.5278320312-.083984375.171875-.2587890625.28125-.4501953125.28125Zm-7.1508789062-1h6.1215820312l-1.015625-1.2919921875-.6015625.6015625c-.0986328125.1000976562-.228515625.1552734375-.3774414062.1459960938-.140625-.0068359375-.2719726562-.072265625-.361328125-.1811523438l-2.01171875-2.4345703125-1.75390625,3.16015625Z" style="fill:#b1d098; stroke-width:0px;"/><circle cx="12.9931310042" cy="6.9668610055" r=".9834304985" style="fill:#b1d098; stroke-width:0px;"/></g></svg>