<?xml version="1.0" encoding="UTF-8"?><svg xmlns="http://www.w3.org/2000/svg" viewBox="0 0 20 20"><g id="Layer_3"><rect width="19.9999999973" height="20" rx="3" ry="3" style="fill:#63a132; stroke-width:0px;"/></g><g id="Layer_2"><path d="m10,18.5c-.2763671875,0-.5-.2236328125-.5-.5v-4c0-.2763671875.2236328125-.5.5-.5s.5.2236328125.5.5v4c0,.2763671875-.2236328125.5-.5.5Z" style="fill:#fff; stroke-width:0px;"/><path d="m10,18.5c-.2763671875,0-.5-.2236328125-.5-.5v-4c0-.2763671875.2236328125-.5.5-.5s.5.2236328125.5.5v4c0,.2763671875-.2236328125.5-.5.5Z" style="fill:#fff; stroke-width:0px;"/><circle cx="10" cy="8" r="1" style="stroke-width:0px;"/><circle cx="10" cy="8" r="1" style="fill:#b1d098; stroke-width:0px;"/><path d="m13.4995117188,12.9780273438h-7.001953125c-.2763671875,0-.5-.2236328125-.5-.5v-2.4565429688c0-2.0600585938.6977539062-4.087890625,1.9653320312-5.7104492188l1.6416015625-2.1015625c.0947265625-.1215820312.240234375-.1923828125.3940429688-.1923828125h0c.1538085938,0,.2993164062.0708007812.3940429688.1923828125l1.6411132812,2.1015625c1.267578125,1.623046875,1.9658203125,3.6508789062,1.9658203125,5.7104492188v2.4565429688c0,.2763671875-.2236328125.5-.5.5Zm-6.501953125-1h6.001953125v-1.9565429688c0-1.8374023438-.623046875-3.6469726562-1.75390625-5.0952148438h0l-1.2470703125-1.5966796875-1.2475585938,1.5966796875c-1.130859375,1.4477539062-1.7534179688,3.2573242188-1.7534179688,5.0952148438v1.9565429688Z" style="fill:#fff; stroke-width:0px;"/><path d="m13.4995117188,12.9780273438h-7.001953125c-.2763671875,0-.5-.2236328125-.5-.5v-2.4565429688c0-2.0600585938.6977539062-4.087890625,1.9653320312-5.7104492188l1.6416015625-2.1015625c.0947265625-.1215820312.240234375-.1923828125.3940429688-.1923828125h0c.1538085938,0,.2993164062.0708007812.3940429688.1923828125l1.6411132812,2.1015625c1.267578125,1.623046875,1.9658203125,3.6508789062,1.9658203125,5.7104492188v2.4565429688c0,.2763671875-.2236328125.5-.5.5Zm-6.501953125-1h6.001953125v-1.9565429688c0-1.8374023438-.623046875-3.6469726562-1.75390625-5.0952148438h0l-1.2470703125-1.5966796875-1.2475585938,1.5966796875c-1.130859375,1.4477539062-1.7534179688,3.2573242188-1.7534179688,5.0952148438v1.9565429688Z" style="fill:#fff; stroke-width:0px;"/><path d="m5,18c-.2763671875,0-.5-.2236328125-.5-.5s.2236328125-.5.5-.5c1.3784179688,0,2.5-1.1215820312,2.5-2.5,0-.2763671875.2236328125-.5.5-.5s.5.2236328125.5.5c0,1.9296875-1.5703125,3.5-3.5,3.5Z" style="fill:#fff; stroke-width:0px;"/><path d="m5,18c-.2763671875,0-.5-.2236328125-.5-.5s.2236328125-.5.5-.5c1.3784179688,0,2.5-1.1215820312,2.5-2.5,0-.2763671875.2236328125-.5.5-.5s.5.2236328125.5.5c0,1.9296875-1.5703125,3.5-3.5,3.5Z" style="fill:#fff; stroke-width:0px;"/><path d="m14.9995117188,18c-1.9296875,0-3.5-1.5703125-3.5-3.5,0-.2763671875.2236328125-.5.5-.5s.5.2236328125.5.5c0,1.3784179688,1.1215820312,2.5,2.5,2.5.2763671875,0,.5.2236328125.5.5s-.2236328125.5-.5.5Z" style="fill:#fff; stroke-width:0px;"/><path d="m14.9995117188,18c-1.9296875,0-3.5-1.5703125-3.5-3.5,0-.2763671875.2236328125-.5.5-.5s.5.2236328125.5.5c0,1.3784179688,1.1215820312,2.5,2.5,2.5.2763671875,0,.5.2236328125.5.5s-.2236328125.5-.5.5Z" style="fill:#fff; stroke-width:0px;"/><path d="m17.5,16.5c-.2763671875,0-.5-.2236328125-.5-.5,0-1.529296875-.4838867188-2.9814453125-1.3999023438-4.2001953125-.1655273438-.220703125-.12109375-.5341796875.099609375-.7001953125.2211914062-.1645507812.5341796875-.1206054688.7001953125.099609375,1.046875,1.3930664062,1.6000976562,3.0532226562,1.6000976562,4.80078125,0,.2763671875-.2236328125.5-.5.5Z" style="fill:#b1d098; stroke-width:0px;"/><path d="m17.5,16.5c-.2763671875,0-.5-.2236328125-.5-.5,0-1.529296875-.4838867188-2.9814453125-1.3999023438-4.2001953125-.1655273438-.220703125-.12109375-.5341796875.099609375-.7001953125.2211914062-.1645507812.5341796875-.1206054688.7001953125.099609375,1.046875,1.3930664062,1.6000976562,3.0532226562,1.6000976562,4.80078125,0,.2763671875-.2236328125.5-.5.5Z" style="fill:#b1d098; stroke-width:0px;"/><path d="m2.5,16.5c-.2763671875,0-.5-.2236328125-.5-.5,0-1.7475585938.5532226562-3.4077148438,1.6000976562-4.80078125.1665039062-.220703125.4799804688-.2646484375.7001953125-.099609375.220703125.166015625.2651367188.4794921875.099609375.7001953125-.916015625,1.21875-1.3999023438,2.6708984375-1.3999023438,4.2001953125,0,.2763671875-.2236328125.5-.5.5Z" style="fill:#b1d098; stroke-width:0px;"/><path d="m2.5,16.5c-.2763671875,0-.5-.2236328125-.5-.5,0-1.7475585938.5532226562-3.4077148438,1.6000976562-4.80078125.1665039062-.220703125.4799804688-.2646484375.7001953125-.099609375.220703125.166015625.2651367188.4794921875.099609375.7001953125-.916015625,1.21875-1.3999023438,2.6708984375-1.3999023438,4.2001953125,0,.2763671875-.2236328125.5-.5.5Z" style="fill:#b1d098; stroke-width:0px;"/></g></svg>