<?xml version="1.0" encoding="UTF-8"?><svg xmlns="http://www.w3.org/2000/svg" viewBox="0 0 20 20"><g id="Layer_3"><rect width="19.9999999973" height="20" rx="3" ry="3" style="fill:#63a132; stroke-width:0px;"/></g><g id="Layer_2"><path d="m9.9995117188,16.3432617188c-.2412109375,0-.453125-.1743164062-.4931640625-.419921875-.0439453125-.2724609375.1411132812-.529296875.4135742188-.5737304688,1.0400390625-.1684570312,2.0546875-.53515625,3.0146484375-1.0893554688,3.384765625-1.9545898438,4.9301757812-5.6376953125,3.4448242188-8.2099609375-.70703125-1.2250976562-2.0004882812-2.0239257812-3.6411132812-2.2485351562-1.6904296875-.2333984375-3.5317382812.1689453125-5.19140625,1.1274414062-1.4150390625.8168945312-2.5791015625,1.9907226562-3.2778320312,3.3056640625-.1298828125.2431640625-.4311523438.3374023438-.6762695312.2065429688-.2436523438-.1293945312-.3364257812-.4321289062-.2065429688-.6762695312.796875-1.4995117188,2.0629882812-2.7797851562,3.6606445312-3.7021484375,1.8505859375-1.068359375,3.921875-1.5126953125,5.8271484375-1.251953125,1.9541015625.267578125,3.5063476562,1.2407226562,4.3715820312,2.7392578125,1.7612304688,3.0498046875.0512695312,7.345703125-3.8110351562,9.576171875-1.0654296875.6147460938-2.1943359375,1.0219726562-3.3544921875,1.2104492188-.02734375.0043945312-.0541992188.0063476562-.0805664062.0063476562Z" style="fill:#fff; stroke-width:0px;"/><path d="m3.3779296875,17.52734375c-.0727539062,0-.1450195312-.015625-.2124023438-.0473632812-.1274414062-.0600585938-.2241210938-.1708984375-.265625-.3061523438l-.4370117188-1.4243164062c-.0361328125-.1186523438-.02734375-.2465820312.025390625-.3588867188L6.7060546875,6.3930664062c.0561523438-.1201171875.1577148438-.212890625.2827148438-.2578125.1240234375-.044921875.2612304688-.0385742188.3823242188.017578125l1.8110351562.8491210938c.25.1171875.357421875.4150390625.240234375.6650390625l-4.2177734375,8.9975585938c-.052734375.1123046875-.1450195312.2006835938-.259765625.2490234375l-1.3740234375.5751953125c-.0615234375.0258789062-.1274414062.0385742188-.1928710938.0385742188Zm1.3740234375-1.0751953125h.009765625-.009765625Zm-1.2763671875-.8115234375l.2182617188.7124023438.6870117188-.2875976562,3.923828125-8.3706054688-.9057617188-.4243164062-3.9233398438,8.3701171875Z" style="fill:#fff; stroke-width:0px;"/><path d="m7.7973632812,10.4536132812c-.0708007812,0-.1430664062-.0151367188-.2114257812-.0473632812l-1.8115234375-.8486328125c-.25-.1171875-.357421875-.4145507812-.240234375-.6645507812.1171875-.2504882812.4135742188-.3579101562.6650390625-.2407226562l1.810546875.8486328125c.2504882812.1171875.3579101562.4145507812.2407226562.6645507812-.0849609375.181640625-.2651367188.2880859375-.453125.2880859375Z" style="fill:#fff; stroke-width:0px;"/><circle cx="13" cy="6" r="1" style="fill:#b1d098; stroke-width:0px;"/><circle cx="14" cy="10" r="1" style="fill:#b1d098; stroke-width:0px;"/><circle cx="11" cy="13" r="1" style="fill:#b1d098; stroke-width:0px;"/></g></svg>