<?xml version="1.0" encoding="UTF-8"?><svg xmlns="http://www.w3.org/2000/svg" viewBox="0 0 20 20"><g id="Layer_3"><rect width="19.9999999973" height="20" rx="3" ry="3" style="fill:#63a132; stroke-width:0px;"/></g><g id="Layer_2"><path d="m11.3305231841,13.0669872981l-2.1610463682-1.2476807024c-.3333333333-.1924500897-.75.0481125224-.75.4330127019v2.4953614049c0,.3849001795.4166666667.6254627916.75.4330127019l2.1610463682-1.2476807024c.3333333333-.1924500897.3333333333-.6735753141,0-.8660254038Z" style="fill:#b1d098; stroke-width:0px;"/><path d="m2.5,10c-.21484375,0-.4130859375-.1391601562-.478515625-.3549804688l-.5810546875-1.9140625c-.240234375-.7915039062.208984375-1.630859375,1-1.8706054688l12.439453125-3.7749023438h.0009765625c.78515625-.2392578125,1.62890625.2084960938,1.87109375.9990234375l.580078125,1.9150390625c.080078125.2641601562-.0693359375.5434570312-.3330078125.6235351562L2.6455078125,9.978515625c-.048828125.0146484375-.09765625.021484375-.1455078125.021484375ZM15.169921875,3.0424804688L2.7314453125,6.8173828125c-.2646484375.080078125-.4140625.3598632812-.333984375.6235351562l.435546875,1.435546875,13.3974609375-4.0654296875-.435546875-1.435546875c-.080078125-.2631835938-.35546875-.4135742188-.625-.3330078125h0Z" style="fill:#fff; stroke-width:0px;"/><path d="m4.4140625,9.4194335938c-.080078125,0-.16015625-.0190429688-.2353515625-.0590820312-.244140625-.1298828125-.3359375-.4331054688-.2060546875-.6762695312l1.9990234375-3.7421875c.1318359375-.2451171875.435546875-.3344726562.6767578125-.2055664062.244140625.1298828125.3359375.4331054688.2060546875.6762695312l-1.9990234375,3.7421875c-.0908203125.1689453125-.263671875.2646484375-.44140625.2646484375Z" style="fill:#fff; stroke-width:0px;"/><path d="m8.2412109375,8.2578125c-.080078125,0-.1611328125-.0190429688-.2353515625-.0590820312-.244140625-.1303710938-.3359375-.4331054688-.2060546875-.6767578125l2-3.7416992188c.1318359375-.2446289062.4384765625-.3349609375.6767578125-.205078125.244140625.1303710938.3359375.4331054688.2060546875.6767578125l-2,3.7416992188c-.0908203125.1684570312-.263671875.2641601562-.44140625.2641601562Z" style="fill:#fff; stroke-width:0px;"/><path d="m12.0693359375,7.0961914062c-.080078125,0-.16015625-.0190429688-.2353515625-.0590820312-.244140625-.1298828125-.3359375-.4331054688-.2060546875-.6767578125l1.9990234375-3.7416992188c.1318359375-.244140625.43359375-.3334960938.6767578125-.205078125.244140625.1298828125.3359375.4331054688.2060546875.6767578125l-1.9990234375,3.7416992188c-.0908203125.1684570312-.263671875.2641601562-.44140625.2641601562Z" style="fill:#fff; stroke-width:0px;"/><path d="m16.5,18H3.5c-.8271484375,0-1.5-.6728515625-1.5-1.5v-7c0-.2763671875.2236328125-.5.5-.5h15c.2763671875,0,.5.2236328125.5.5v7c0,.8271484375-.6728515625,1.5-1.5,1.5ZM3,10v6.5c0,.2758789062.224609375.5.5.5h13c.275390625,0,.5-.2241210938.5-.5v-6.5H3Z" style="fill:#fff; stroke-width:0px;"/></g></svg>