<svg width="245" height="128" viewBox="0 0 245 128" fill="none" xmlns="http://www.w3.org/2000/svg">
<path d="M244.239 122.097C244.239 122.055 244.239 122.012 244.239 121.97C244.239 54.6371 189.655 0.0527344 122.322 0.0527344C54.9886 0.0527344 0.404297 54.6371 0.404297 121.97C0.404297 122.012 0.404359 122.055 0.404359 122.097L5.47804 117.033L10.5517 122.097C10.5517 122.055 10.5517 122.012 10.5517 121.97C10.5517 60.2412 60.5929 10.2002 122.322 10.2002C184.051 10.2002 234.092 60.2412 234.092 121.97C234.092 122.012 234.092 122.055 234.092 122.097L239.165 127.161L244.239 122.097Z" fill="#6DB24F"/>
</svg>
