<svg width="244" height="128" viewBox="0 0 244 128" fill="none" xmlns="http://www.w3.org/2000/svg">
<path d="M243.948 5.90757C243.948 5.94986 243.948 5.99189 243.948 6.03417C243.948 73.3673 189.364 127.952 122.031 127.952C54.6976 127.952 0.113276 73.3673 0.113271 6.03419C0.113271 5.99191 0.113332 5.94988 0.113332 5.90759L5.18701 10.9717L10.2607 5.90759C10.2607 5.94988 10.2606 5.99191 10.2606 6.03419C10.2606 67.7632 60.3018 117.804 122.031 117.804C183.76 117.804 233.801 67.7632 233.801 6.03417C233.801 5.99189 233.801 5.94986 233.801 5.90757L238.874 0.843508L243.948 5.90757Z" fill="#87C76C"/>
</svg>
